<svg xmlns="http://www.w3.org/2000/svg" width="166.325" height="166.325" viewBox="0 0 166.325 166.325">
  <path id="Wallet-Icon-SVG-pdlkgnirm" d="M17.326,166.325A17.336,17.336,0,0,1,0,149V48.511A20.8,20.8,0,0,1,20.791,27.739h6.93V13.86A13.878,13.878,0,0,1,41.581,0h83.163A13.878,13.878,0,0,1,138.6,13.86V27.739h10.378a17.336,17.336,0,0,1,17.343,17.307V149a17.34,17.34,0,0,1-17.343,17.326ZM6.93,149a10.4,10.4,0,0,0,10.4,10.4H148.982A10.413,10.413,0,0,0,159.395,149V131.674H128.209a17.325,17.325,0,1,1,0-34.651h31.186V79.7A10.424,10.424,0,0,0,148.982,69.3H20.791a20.4,20.4,0,0,1-7.8-1.581,18.774,18.774,0,0,1-2.292-1.4,21.408,21.408,0,0,1-3.767-2.31Zm110.883-34.651a10.412,10.412,0,0,0,10.4,10.413h31.186V103.953H128.209A10.409,10.409,0,0,0,117.813,114.348ZM138.6,62.372h10.378a17.339,17.339,0,0,1,6.237,1.262,16.828,16.828,0,0,1,1.688.888,17.512,17.512,0,0,1,2.488,1.333V45.046a10.424,10.424,0,0,0-10.413-10.4H138.6ZM110.883,45.046V62.372h20.791V13.86a6.939,6.939,0,0,0-6.93-6.93H90.093V62.372h13.86V45.046ZM62.372,62.372h20.79V6.93H62.372ZM34.651,13.86V62.372H55.442V6.93H41.581A6.939,6.939,0,0,0,34.651,13.86ZM6.93,48.511A13.868,13.868,0,0,0,20.791,62.372h6.93V34.651h-6.93A13.878,13.878,0,0,0,6.93,48.511ZM123.2,114.224a4.274,4.274,0,1,1,4.264,4.265A4.265,4.265,0,0,1,123.2,114.224Z"/>
</svg>
